<?xml version="1.0" encoding="iso-8859-1"?>
<!-- Generator: Adobe Illustrator 19.0.0, SVG Export Plug-In . SVG Version: 6.00 Build 0)  -->
<svg version="1.1" id="Capa_1" xmlns="http://www.w3.org/2000/svg" xmlns:xlink="http://www.w3.org/1999/xlink" x="0px" y="0px"
	 viewBox="0 0 512 512" style="enable-background:new 0 0 512 512;" xml:space="preserve">
<g>
	<g>
		<g fill="#323b47">
			<path d="M39.284,295.8c4.02,4.305,10.768,4.536,15.074,0.518l143.725-134.141l116.739,29.185
				c7.271,1.818,14.962-0.313,20.261-5.612l91.583-91.583V96c0,5.896,4.771,10.667,10.667,10.667h21.333
				c5.891,0,10.667-4.776,10.667-10.667V32c0-5.891-4.776-10.667-10.667-10.667h-64C388.776,21.333,384,26.109,384,32v21.333
				C384,59.229,388.771,64,394.667,64h1.833l-83.042,83.042l-116.292-29.073c-7.014-1.753-14.438,0.166-19.723,5.099L25.238,265.126
				c-4.308,4.02-4.539,10.772-0.518,15.078L39.284,295.8z"/>
			<path d="M501.333,448h-10.667V160c0-5.896-4.771-10.667-10.667-10.667h-64c-5.896,0-10.667,4.771-10.667,10.667v288h-42.667
				V245.333c0-5.896-4.771-10.667-10.667-10.667h-64c-5.896,0-10.667,4.771-10.667,10.667V448h-42.667V224
				c0-5.896-4.771-10.667-10.667-10.667h-64c-5.896,0-10.667,4.771-10.667,10.667v224h-42.667v-74.667
				c0-5.896-4.771-10.667-10.667-10.667H32c-5.896,0-10.667,4.771-10.667,10.667V448H10.667C4.771,448,0,452.771,0,458.667V480
				c0,5.896,4.771,10.667,10.667,10.667h490.667c5.896,0,10.667-4.771,10.667-10.667v-21.333C512,452.771,507.229,448,501.333,448z"
				/>
		</g>
	</g>
</g>
<g>
</g>
<g>
</g>
<g>
</g>
<g>
</g>
<g>
</g>
<g>
</g>
<g>
</g>
<g>
</g>
<g>
</g>
<g>
</g>
<g>
</g>
<g>
</g>
<g>
</g>
<g>
</g>
<g>
</g>
</svg>
